
<svg xmlns="http://www.w3.org/2000/svg" version="1.1" width="724px" height="282px" style="shape-rendering:geometricPrecision; text-rendering:geometricPrecision; image-rendering:optimizeQuality; fill-rule:evenodd; clip-rule:evenodd" xmlns:xlink="http://www.w3.org/1999/xlink">
<g><path style="opacity:0.972" fill="#00FA8E" d="M 131.5,-0.5 C 137.833,-0.5 144.167,-0.5 150.5,-0.5C 174.433,1.86683 196.766,9.36683 217.5,22C 243.77,41.0923 267.77,62.9257 289.5,87.5C 281.534,97.1337 272.867,106.134 263.5,114.5C 242.793,90.9513 219.793,70.118 194.5,52C 148.37,27.9616 105.87,33.1283 67,67.5C 36.4018,101.414 29.4018,139.747 46,182.5C 70.1929,228.849 108.36,248.682 160.5,242C 178.369,238.064 194.369,230.397 208.5,219C 215.019,213.904 221.352,208.571 227.5,203C 261.863,168.304 295.863,133.304 329.5,98C 297.963,65.2976 266.629,32.4643 235.5,-0.5C 252.833,-0.5 270.167,-0.5 287.5,-0.5C 309.993,23.1341 332.493,46.8008 355,70.5C 378.037,46.9646 400.87,23.2979 423.5,-0.5C 440.5,-0.5 457.5,-0.5 474.5,-0.5C 468.23,6.94231 461.73,14.2756 455,21.5C 399.302,78.8633 343.969,136.53 289,194.5C 274.138,209.696 258.971,224.529 243.5,239C 223.83,256.839 201.164,269.506 175.5,277C 166.106,279.067 156.773,280.567 147.5,281.5C 142.833,281.5 138.167,281.5 133.5,281.5C 70.4589,274.959 27.9589,241.959 6,182.5C 2.73371,170.886 0.567045,159.219 -0.5,147.5C -0.5,142.5 -0.5,137.5 -0.5,132.5C 4.99939,75.9939 33.3327,35.4939 84.5,11C 99.7234,4.77675 115.39,0.943416 131.5,-0.5 Z"/></g>
<g><path style="opacity:0.972" fill="#00FA8E" d="M 570.5,-0.5 C 578.5,-0.5 586.5,-0.5 594.5,-0.5C 650.217,6.37965 689.717,35.3797 713,86.5C 718.364,100.515 721.864,114.848 723.5,129.5C 723.5,136.833 723.5,144.167 723.5,151.5C 714.661,216.174 678.995,258.008 616.5,277C 573.166,286.534 533.5,278.534 497.5,253C 473.604,235.1 452.437,214.6 434,191.5C 442.167,183.333 450.333,175.167 458.5,167C 459.167,166.333 459.833,166.333 460.5,167C 475.532,183.699 491.532,199.366 508.5,214C 546.089,246.465 587.423,252.132 632.5,231C 676.896,202.831 693.396,162.997 682,111.5C 665.463,64.6291 632.297,39.6291 582.5,36.5C 559.208,37.2077 538.208,44.3744 519.5,58C 511.833,64.3333 504.167,70.6667 496.5,77C 461.955,111.711 427.955,146.878 394.5,182.5C 425.151,214.985 455.984,247.318 487,279.5C 487.464,280.094 487.631,280.761 487.5,281.5C 470.5,281.5 453.5,281.5 436.5,281.5C 413.87,257.702 391.037,234.035 368,210.5C 344.963,234.035 322.13,257.702 299.5,281.5C 282.5,281.5 265.5,281.5 248.5,281.5C 254.102,274.725 259.935,268.058 266,261.5C 334.47,190.029 403.303,118.863 472.5,48C 489.09,32.3643 507.756,19.6977 528.5,10C 542.158,4.58554 556.158,1.08554 570.5,-0.5 Z"/></g>
</svg>
